<svg xmlns="http://www.w3.org/2000/svg" id="Capa_1" height="512" viewBox="0 0 512 512" width="512"><g><g><path d="m503.987 408.619-100.883-100.882v-85.451c3.3 2.042 7.049 3.082 10.806 3.082 5.263 0 10.525-2.003 14.532-6.01l14.26-14.261c7.973-7.649 7.972-21.414.001-29.063l-39.599-39.599v-115.285c0-11.662-9.488-21.15-21.15-21.15h-333.779c-11.662 0-21.15 9.488-21.15 21.15v436.046h-10.811c-8.447 0-15.319 6.872-15.319 15.319v24.165c0 8.447 6.872 15.319 15.319 15.319h258.611c9.253 0 16.78-7.527 16.78-16.78v-22.704c0-8.447-6.872-15.319-15.319-15.319h-47.29v-12.83c0-8.447-6.872-15.319-15.319-15.319h-134.853c-8.447 0-15.32 6.872-15.32 15.319v12.83h-21.48v-436.046c0-3.392 2.759-6.15 6.15-6.15h333.779c3.392 0 6.15 2.759 6.15 6.15v100.285l-48.991-48.991c-8.014-8.012-21.05-8.011-29.063 0l-14.261 14.261c-8.217 8.186-7.951 21.657.505 29.57l-130.362 130.364c-7.913-8.456-21.384-8.721-29.569-.506l-14.262 14.261c-8.013 8.014-8.013 21.051 0 29.064l103.59 103.59c4.007 4.006 9.27 6.009 14.531 6.009 5.263 0 10.525-2.003 14.532-6.009v-.001l14.261-14.261c8.012-8.013 8.012-21.051 0-29.063l-.505-.505 17.277-17.277 25.049-25.049 77.27 77.269v86.689c0 3.392-2.759 6.15-6.15 6.15h-62.17c-4.143 0-7.5 3.357-7.5 7.5s3.357 7.5 7.5 7.5h62.17c11.662 0 21.15-9.488 21.15-21.15v-71.689l55.171 55.17c9.492 9.491 24.935 9.491 34.428 0l11.284-11.282c9.49-9.492 9.49-24.938-.001-34.43zm-228.162 88.381h-259.611c-.896.061-.176-24.804 0-24.804h260.072c.176 0 .521 24.804-.461 24.804zm-197.321-52.634c0-.176 135.492-.176 135.492 0v12.83h-135.492zm278.043-183.186 31.558-31.558v63.115zm-72.225-111.718 81.365 81.363-85.204 85.205-81.365-81.364zm30.054-15.106c2.93 2.928 7.678 2.928 10.607 0 2.929-2.93 2.929-7.678 0-10.607l-18.587-18.587c-2.165-2.164-2.165-5.686 0-7.85l14.261-14.261c2.164-2.165 5.685-2.164 7.849 0l103.59 103.59c2.154 2.066 2.154 5.783 0 7.85l-14.261 14.261c-2.166 2.164-5.687 2.163-7.849 0l-59.54-59.54c-2.93-2.928-7.678-2.928-10.607 0-2.929 2.93-2.929 7.678 0 10.607l48.427 48.427-11.973 11.973-81.364-81.363 11.973-11.973zm-55.969 233.824-14.261 14.261c-2.166 2.164-5.687 2.163-7.849 0l-103.59-103.59c-2.165-2.164-2.165-5.686 0-7.85l14.261-14.261c2.164-2.164 5.685-2.164 7.849 0l103.59 103.59c2.164 2.164 2.164 5.685 0 7.85zm-81.87-110.934 11.973-11.973 81.365 81.364-11.973 11.973zm316.844 175.195-11.284 11.282c-3.641 3.645-9.569 3.646-13.214 0l-147.441-147.438 24.498-24.498 147.44 147.44c3.643 3.643 3.643 9.571.001 13.214z"></path><path d="m288.089 56.801c0-13.578-11.047-24.624-24.625-24.624h-95.19c-13.578 0-24.625 11.046-24.625 24.624s11.047 24.625 24.625 24.625h95.19c13.578 0 24.625-11.047 24.625-24.625zm-129.441 0c0-5.307 4.317-9.624 9.625-9.624h95.19c5.308 0 9.625 4.317 9.625 9.624 0 5.308-4.317 9.625-9.625 9.625h-95.19c-5.307 0-9.625-4.318-9.625-9.625z"></path><path d="m248.996 125.979c0-4.143-3.357-7.5-7.5-7.5h-81.869c-4.143 0-7.5 3.357-7.5 7.5s3.357 7.5 7.5 7.5h81.869c4.143 0 7.5-3.357 7.5-7.5z"></path><path d="m159.627 158.463c-4.143 0-7.5 3.357-7.5 7.5s3.357 7.5 7.5 7.5h43.844c4.143 0 7.5-3.357 7.5-7.5s-3.357-7.5-7.5-7.5z"></path><path d="m134.442 402.401h66.119c4.143 0 7.5-3.357 7.5-7.5s-3.357-7.5-7.5-7.5h-66.119c-4.143 0-7.5 3.357-7.5 7.5s3.358 7.5 7.5 7.5z"></path><path d="m82.646 387.401c-4.143 0-7.5 3.357-7.5 7.5s3.357 7.5 7.5 7.5h16.498c4.143 0 7.5-3.357 7.5-7.5s-3.357-7.5-7.5-7.5z"></path><path d="m148.99 354.917c0-4.143-3.357-7.5-7.5-7.5h-58.844c-4.143 0-7.5 3.357-7.5 7.5s3.357 7.5 7.5 7.5h58.844c4.143 0 7.5-3.357 7.5-7.5z"></path><path d="m83.476 175.171c4.095 2.679 7.328 3.991 10.884 4.597v.862c0 4.143 3.357 7.5 7.5 7.5s7.5-3.357 7.5-7.5v-1.691c8.192-2.894 13.436-10.242 14.659-17.516 1.713-10.191-3.804-19.396-13.729-22.903-4.889-1.728-10.277-3.801-13.183-6.079-.25-.196-.609-1.134-.351-2.509.124-.654.69-2.839 2.812-3.478 4.941-1.486 8.082.964 8.425 1.249l2.81 1.335s7.067 3.173 9.519-3.317c1.961-5.191-2.287-9.158-2.287-9.158-1.72-1.586-4.746-3.506-8.676-4.629v-.758c0-4.143-3.357-7.5-7.5-7.5s-7.5 3.357-7.5 7.5v1.217c-6.344 2.265-11.038 7.836-12.343 14.761-1.268 6.726.969 13.273 5.834 17.09 4.601 3.608 11.102 6.179 17.44 8.419 3.893 1.376 4.288 4.171 3.935 6.274-.507 3.015-3.043 6.271-7.417 6.301-5.122.032-6.355-.155-10.122-2.619-3.467-2.27-8.115-1.296-10.382 2.171-2.266 3.465-1.295 8.114 2.172 10.381z"></path></g></g></svg>