<svg xmlns="http://www.w3.org/2000/svg" id="Capa_1" height="512" viewBox="0 0 512.436 512.436" width="512"><g id="XMLID_1271_"><g id="XMLID_363_"><path id="XMLID_632_" d="m428.12 386.177c12.742-10.826 20.848-26.951 20.848-44.941v-21.767c0-32.52-26.457-58.976-58.976-58.976s-58.975 26.456-58.975 58.976v21.767c0 18.109 8.211 34.33 21.098 45.157-22.271 7.369-42.162 21.081-57.072 39.763-1.876-.967-3.78-1.887-5.733-2.716 9.228-8.768 15-21.142 15-34.846 0-26.518-21.574-48.092-48.092-48.092s-48.092 21.574-48.092 48.092c0 13.64 5.717 25.961 14.87 34.722-1.951.819-3.856 1.725-5.73 2.681-14.966-18.689-34.925-32.387-57.26-39.709 12.817-10.827 20.977-27.001 20.977-45.053v-21.767c0-32.52-26.457-58.976-58.976-58.976s-58.975 26.456-58.975 58.976v21.767c0 18.047 8.157 34.217 20.967 45.044-48.72 16.012-83.999 61.93-83.999 115.939 0 5.522 4.477 10 10 10s10-4.478 10-10c0-56.247 45.761-102.008 102.008-102.008 30.538 0 59.263 13.654 78.566 36.942-18.403 15.701-30.106 39.036-30.106 65.066 0 5.522 4.477 10 10 10s10-4.478 10-10c0-36.135 29.397-65.532 65.532-65.532s65.532 29.397 65.532 65.532c0 5.522 4.477 10 10 10s10-4.478 10-10c0-25.909-11.595-49.146-29.85-64.844 19.304-23.422 48.112-37.164 78.747-37.164 56.247 0 102.007 45.761 102.007 102.008 0 5.522 4.477 10 10 10s10-4.478 10-10c0-54.126-35.432-100.125-84.316-116.041zm-345.088-44.941v-21.767c0-21.491 17.484-38.976 38.976-38.976 21.491 0 38.975 17.484 38.975 38.976v21.767c0 21.49-17.484 38.975-38.975 38.975-21.491-.001-38.976-17.485-38.976-38.975zm173.186 19.266c15.49 0 28.092 12.602 28.092 28.092s-12.602 28.092-28.092 28.092-28.092-12.602-28.092-28.092 12.603-28.092 28.092-28.092zm94.799-41.033c0-21.491 17.484-38.976 38.976-38.976 21.491 0 38.975 17.484 38.975 38.976v21.767c0 21.49-17.484 38.975-38.976 38.975-21.491 0-38.975-17.484-38.975-38.975z"></path><path id="XMLID_643_" d="m129.834 207.885c15.493 0 30.058-6.033 41.012-16.988 10.955-10.954 16.987-25.52 16.987-41.012 0-1.503-.338-2.985-.99-4.339l-41.094-85.328h78.251v146h-1.997c-22.333 0-40.503 18.17-40.503 40.504v9.496c0 5.522 4.477 10 10 10h129c5.523 0 10-4.478 10-10v-9.496c0-22.334-18.17-40.504-40.503-40.504h-1.997v-35.127c0-5.522-4.477-10-10-10s-10 4.478-10 10v35.127h-24v-174c0-6.617 5.383-12 12-12s12 5.383 12 12v48.873c0 5.522 4.477 10 10 10s10-4.478 10-10v-20.873h78.251l-41.094 85.328c-.652 1.354-.99 2.836-.99 4.339 0 15.492 6.032 30.058 16.987 41.012 10.955 10.955 25.52 16.988 41.012 16.988 31.981 0 58-26.019 58-58 0-1.631-.39-3.17-1.082-4.529-1.699-3.525-28.15-58.449-41.002-85.138h16.252c5.523 0 10-4.478 10-10s-4.477-10-10-10h-126.334v-8c0-17.645-14.355-32-32-32s-32 14.355-32 32v8h-126.333c-5.523 0-10 4.478-10 10s4.477 10 10 10h16.252c-12.85 26.682-39.299 81.602-41.003 85.14-.691 1.359-1.081 2.897-1.081 4.527-.001 31.981 26.018 58 57.999 58zm160.163 18.333c11.137 0 20.229 8.926 20.497 20h-108.988c.268-11.074 9.36-20 20.497-20zm92.169-152.953 32.084 66.62h-64.169zm0 114.62c-10.15 0-19.693-3.953-26.87-11.13-4.754-4.754-8.084-10.55-9.797-16.87h73.322c-4.402 16.116-19.163 28-36.655 28zm-252.332 0c-17.493 0-32.253-11.884-36.655-28h73.322c-1.713 6.32-5.043 12.116-9.797 16.87-7.177 7.177-16.719 11.13-26.87 11.13zm-32.084-48 32.084-66.62 32.085 66.62z"></path><path id="XMLID_653_" d="m278 116.088c-2.63 0-5.21 1.069-7.07 2.93-1.86 1.86-2.93 4.44-2.93 7.07 0 2.64 1.07 5.21 2.93 7.069 1.86 1.87 4.44 2.931 7.07 2.931s5.21-1.061 7.07-2.931c1.86-1.859 2.93-4.439 2.93-7.069s-1.07-5.21-2.93-7.07-4.44-2.93-7.07-2.93z"></path></g></g></svg>